name C:\Users\u0150099\Documents\master_thesis\3dpredictsim\Results\debug\Fal_s1_mtjc4_sc_cspx10_oy2_TrackAnkleQSubtQ_MTc2_MTPm_k1_d01_MTJm_nl_MG_exp5_table_d01_PF_Natali2010_x5_ls146_ig21.mot
datacolumns 128
datarows 4
range 1.65134378 1.68437066
endheader
time	pelvis_tilt	pelvis_list	pelvis_rotation	pelvis_tx	pelvis_ty	pelvis_tz	hip_flexion_l	hip_adduction_l	hip_rotation_l	hip_flexion_r	hip_adduction_r	hip_rotation_r	knee_angle_l	knee_angle_r	ankle_angle_l	ankle_angle_r	subtalar_angle_l	subtalar_angle_r	mtj_angle_l	mtj_angle_r	mtp_angle_l	mtp_angle_r	lumbar_extension	lumbar_bending	lumbar_rotation	arm_flex_l	arm_add_l	arm_rot_l	arm_flex_r	arm_add_r	arm_rot_r	elbow_flex_l	elbow_flex_r	pro_sup_l	pro_sup_r	glut_med1_l/activation	glut_med2_l/activation	glut_med3_l/activation	glut_min1_l/activation	glut_min2_l/activation	glut_min3_l/activation	semimem_l/activation	semiten_l/activation	bifemlh_l/activation	bifemsh_l/activation	sar_l/activation	add_long_l/activation	add_brev_l/activation	add_mag1_l/activation	add_mag2_l/activation	add_mag3_l/activation	tfl_l/activation	pect_l/activation	grac_l/activation	glut_max1_l/activation	glut_max2_l/activation	glut_max3_l/activation	iliacus_l/activation	psoas_l/activation	quad_fem_l/activation	gem_l/activation	peri_l/activation	rect_fem_l/activation	vas_med_l/activation	vas_int_l/activation	vas_lat_l/activation	med_gas_l/activation	lat_gas_l/activation	soleus_l/activation	tib_post_l/activation	flex_dig_l/activation	flex_hal_l/activation	tib_ant_l/activation	per_brev_l/activation	per_long_l/activation	per_tert_l/activation	ext_dig_l/activation	ext_hal_l/activation	ercspn_l/activation	intobl_l/activation	extobl_l/activation	glut_med1_r/activation	glut_med2_r/activation	glut_med3_r/activation	glut_min1_r/activation	glut_min2_r/activation	glut_min3_r/activation	semimem_r/activation	semiten_r/activation	bifemlh_r/activation	bifemsh_r/activation	sar_r/activation	add_long_r/activation	add_brev_r/activation	add_mag1_r/activation	add_mag2_r/activation	add_mag3_r/activation	tfl_r/activation	pect_r/activation	grac_r/activation	glut_max1_r/activation	glut_max2_r/activation	glut_max3_r/activation	iliacus_r/activation	psoas_r/activation	quad_fem_r/activation	gem_r/activation	peri_r/activation	rect_fem_r/activation	vas_med_r/activation	vas_int_r/activation	vas_lat_r/activation	med_gas_r/activation	lat_gas_r/activation	soleus_r/activation	tib_post_r/activation	flex_dig_r/activation	flex_hal_r/activation	tib_ant_r/activation	per_brev_r/activation	per_long_r/activation	per_tert_r/activation	ext_dig_r/activation	ext_hal_r/activation	ercspn_r/activation	intobl_r/activation	extobl_r/activation	
          1.65134378	         -2.92521966	          1.26573107	         -4.60970789	          2.19628723	          0.90366761	          0.00475101	         29.09236479	          2.08021226	         -2.43634514	        -19.40734864	          0.87862729	          7.88462691	         -8.72265551	         -6.40480134	          2.14089160	          7.52943679	         -0.58791721	          5.16167361	          1.29133024	         -2.28781623	         -2.98830132	         15.50812989	         -2.98851324	          0.01836130	          1.60008179	         -7.51930650	        -13.47278641	          4.47641032	          3.74876808	        -13.98295809	         19.37816283	         26.18510487	         36.32511113	         86.51662706	         86.51662706	          0.07002701	          0.05000031	          0.05917232	          0.05000018	          0.05000025	          0.05000060	          0.34564905	          0.06288807	          0.07002874	          0.05000014	          0.05000076	          0.11526763	          0.15084123	          0.16798643	          0.16336621	          0.13912145	          0.05000211	          0.05003241	          0.05557819	          0.07194693	          0.09368017	          0.10350562	          0.05000006	          0.05000018	          0.20100772	          0.05000037	          0.05000023	          0.05000113	          0.05917443	          0.05917449	          0.05917424	          0.08569112	          0.05000034	          0.05090278	          0.06618151	          0.08201889	          0.06629887	          0.24347188	          0.05917414	          0.06050392	          0.29673075	          0.64423569	          0.21875460	          0.05917403	          0.09437040	          0.11527088	          0.35447383	          0.09282391	          0.08288103	          0.45006462	          0.23714309	          0.10766559	          0.05000117	          0.05000015	          0.05000012	          0.08731919	          0.11608126	          0.05000020	          0.05000010	          0.05000018	          0.05000061	          0.05000040	          0.66485630	          0.05000067	          0.05000050	          0.05000966	          0.05000211	          0.05000099	          0.38142682	          0.76658391	          0.05000018	          0.05000077	          0.05918072	          0.33348199	          0.05000042	          0.05000043	          0.05000037	          0.39953686	          0.51940706	          0.29254495	          0.41719764	          0.41830728	          0.49572454	          0.05000001	          0.15585554	          0.27324357	          0.05000007	          0.05000084	          0.09808808	          0.05000001	          0.05000001	          0.05000003	
          1.66235274	         -2.92955548	          1.39775111	         -4.91122311	          2.21375413	          0.90323155	          0.00451076	         28.57784495	          2.43523343	         -2.30364656	        -19.44670901	          0.56288572	          7.62787146	         -8.53307764	         -8.05549012	          1.80399506	          6.63264675	         -0.83142528	          5.73426773	          1.72120156	         -3.58497637	         -4.31642065	         19.18144835	         -2.81593593	         -0.20262933	          1.70410425	         -8.40519830	        -13.45313501	          4.18797596	          3.38162494	        -13.93591575	         19.37660055	         25.92153774	         37.59383776	         86.51662706	         86.51662706	          0.05917401	          0.05917406	          0.05000014	          0.05917416	          0.05917412	          0.05251619	          0.31895093	          0.05917415	          0.05917420	          0.05917410	          0.05000056	          0.09808801	          0.17773011	          0.14194341	          0.16910681	          0.16006631	          0.05000009	          0.05226888	          0.05921029	          0.09971288	          0.15574578	          0.18223441	          0.05000045	          0.05000017	          0.21716189	          0.16180942	          0.09487951	          0.05000003	          0.05000036	          0.05000041	          0.05000022	          0.08028217	          0.05432905	          0.05000014	          0.05592893	          0.06930304	          0.05602024	          0.25565625	          0.05000002	          0.08568439	          0.30349493	          0.69447354	          0.35058355	          0.05000006	          0.07973958	          0.09739973	          0.29951771	          0.07843286	          0.07003148	          0.38028845	          0.20037736	          0.09097354	          0.05000143	          0.05000016	          0.05000011	          0.07378157	          0.09808456	          0.11357264	          0.05000142	          0.05000053	          0.05000161	          0.05000093	          0.62159566	          0.05920056	          0.05000026	          0.05000060	          0.05000043	          0.05000050	          0.32229189	          0.73073187	          0.05000004	          0.05000018	          0.05000560	          0.31394172	          0.08562570	          0.08724797	          0.07371347	          0.33759419	          0.43888019	          0.24718990	          0.38975660	          0.45380446	          0.46503095	          0.05000000	          0.16040438	          0.25142891	          0.05000007	          0.05000001	          0.08288089	          0.05000001	          0.05057180	          0.05000009	
          1.67336170	         -2.93017649	          1.53810194	         -5.19621650	          2.23151831	          0.90286782	          0.00424227	         28.07349845	          2.77196894	         -2.15408487	        -19.39575450	          0.23627124	          7.32800860	         -9.09551922	         -9.80841183	          1.06969666	          5.44841071	         -1.13299134	          6.25999272	          2.13471204	         -4.94204143	         -5.52693381	         23.12335303	         -2.62673261	         -0.43345444	          1.80127951	         -9.30888716	        -13.45180167	          4.10040633	          2.92883168	        -13.89209847	         19.30373609	         25.66062840	         38.89645661	         86.51662706	         86.51662706	          0.05000002	          0.05000007	          0.10678033	          0.05000006	          0.05000006	          0.05000008	          0.26950202	          0.05000005	          0.05000008	          0.05000002	          0.05000023	          0.08288107	          0.23684511	          0.25981724	          0.22016217	          0.20084244	          0.05000097	          0.07002567	          0.05003068	          0.11233104	          0.16545106	          0.18815778	          0.05000015	          0.05000041	          0.38277116	          0.13672316	          0.08016980	          0.05917498	          0.16663785	          0.16363412	          0.13714492	          0.07003156	          0.07003150	          0.07003153	          0.05000000	          0.06520831	          0.05917483	          0.37349245	          0.10787240	          0.07240022	          0.53482718	          0.73080310	          0.57703187	          0.05000000	          0.06737706	          0.08229925	          0.25308167	          0.06627294	          0.05917411	          0.32133005	          0.16931164	          0.07686937	          0.05000336	          0.05000057	          0.05000161	          0.06234278	          0.08287798	          0.19922415	          0.18728258	          0.05917438	          0.05916285	          0.05917525	          0.58566484	          0.05002724	          0.05003702	          0.05014979	          0.05301676	          0.05916318	          0.27232501	          0.66479530	          0.05917410	          0.05917400	          0.05000018	          0.26563458	          0.15853161	          0.16258347	          0.13576515	          0.28525488	          0.37083788	          0.20886652	          0.32933026	          0.46877706	          0.39293463	          0.05000000	          0.16112380	          0.22673462	          0.05000003	          0.05000001	          0.07003136	          0.05483096	          0.05917424	          0.07003157	
          1.68437066	         -2.92881478	          1.70905658	         -5.45933050	          2.24945515	          0.90262307	          0.00396598	         27.51718355	          3.06838474	         -1.95757756	        -19.23978391	         -0.11291140	          6.99113024	        -10.00581979	        -11.65096754	          0.14174924	          3.90515415	         -1.44404288	          6.66297625	          2.50562258	         -6.32149093	         -6.48540275	         27.28171378	         -2.42855393	         -0.69818865	          1.88920133	        -10.19227451	        -13.47036335	          4.19080119	          2.41189648	        -13.84616638	         19.18820403	         25.36061633	         40.21473044	         86.51662706	         86.51662706	          0.32218313	          0.35057596	          0.40207275	          0.29245628	          0.25236257	          0.24679361	          0.22771947	          0.15000582	          0.10792877	          0.09808515	          0.05917421	          0.07003153	          0.20012558	          0.21953622	          0.18602914	          0.21138618	          0.05000024	          0.05916964	          0.15655563	          0.28494363	          0.24515421	          0.19898123	          0.05917404	          0.05004806	          0.32342786	          0.11552629	          0.13230716	          0.05000072	          0.14080296	          0.13826492	          0.11588250	          0.05917414	          0.05917409	          0.05917411	          0.10901305	          0.05509867	          0.05000061	          0.38798044	          0.09114829	          0.06117557	          0.72403300	          0.84474759	          0.75606397	          0.06123622	          0.09808849	          0.06953989	          0.22656639	          0.05599824	          0.05000001	          0.38308259	          0.14306223	          0.06495184	          0.05000182	          0.05000009	          0.05000005	          0.05267744	          0.07002899	          0.25367517	          0.20475344	          0.05000036	          0.05000040	          0.05000124	          0.64929489	          0.05920148	          0.05000015	          0.05000032	          0.05000019	          0.05000016	          0.23010485	          0.66955161	          0.05000002	          0.05000007	          0.05000002	          0.22445173	          0.13395356	          0.13737722	          0.11471671	          0.24103005	          0.31334460	          0.17648465	          0.27827216	          0.39609998	          0.33201562	          0.05000001	          0.20310984	          0.19158264	          0.05000004	          0.05000003	          0.05917398	          0.08949444	          0.05000010	          0.05917415	
